<svg width="114" height="50" viewBox="0 0 114 50" fill="none" xmlns="http://www.w3.org/2000/svg">
<path fill-rule="evenodd" clip-rule="evenodd" d="M52.8836 19.9154L51.6446 28.7135L48.9977 19.9154H48.9198H46.1163L45.5743 19.915L43.4653 34.8884H46.8105L48.0499 26.0905L50.6968 34.8887H50.7746H53.5779H54.1198L56.2288 19.9157L52.8836 19.9154Z" fill="white"/>
<path fill-rule="evenodd" clip-rule="evenodd" d="M68.177 22.6949C68.2552 22.1087 68.0441 21.5214 67.5667 20.9956C66.6939 20.0349 65.1174 19.4609 63.3484 19.4609C60.56 19.4606 58.1727 20.9083 57.9131 22.7563C57.8125 23.4746 57.7761 23.7437 57.6919 24.3287C57.5447 25.3506 57.8027 25.9821 58.615 26.582C59.3773 27.1458 61.8323 28.7561 62.4556 29.1629C62.6088 29.2629 63.3699 29.7948 63.2869 30.4285C63.2869 30.4285 63.1898 31.1962 63.1217 31.6793C63.0232 32.3792 62.4043 32.7663 61.6392 32.7663C60.6835 32.7663 60.1295 32.2867 60.226 31.6023C60.301 31.0689 60.4872 29.747 60.4872 29.747L56.9289 29.7466L56.5994 32.0867C56.5114 32.7511 56.714 33.3811 57.1939 33.9085C58.0103 34.8069 59.3903 35.3431 61.1115 35.3431C63.7374 35.3435 66.6882 34.1934 66.9889 31.9964C67.1019 31.1693 67.163 30.7929 67.227 30.3079C67.358 29.3111 66.919 28.2734 65.6125 27.4332C64.9097 26.9812 63.1679 25.9315 62.2891 25.3822C61.982 25.1904 61.5306 24.9052 61.58 24.342C61.6221 23.8662 61.7668 23.0156 61.7668 23.0156C61.8465 22.449 62.3575 22.0406 63.2195 22.0406C64.1151 22.0406 64.6178 22.4784 64.5421 23.0156L64.2952 24.7675H67.8848L68.177 22.6949" fill="white"/>
<path fill-rule="evenodd" clip-rule="evenodd" d="M34.9793 32.0142C32.436 32.0142 30.3669 29.9452 30.3669 27.4019C30.3669 24.8587 32.436 22.7896 34.9793 22.7896C37.5226 22.7896 39.5917 24.8587 39.5917 27.4019C39.5917 29.9452 37.5226 32.0142 34.9793 32.0142ZM34.9796 19.4609C30.6008 19.4609 27.0381 23.0232 27.0381 27.4019C27.0381 31.7806 30.6008 35.3431 34.9796 35.3431C39.3587 35.3431 42.9208 31.7806 42.9208 27.4019C42.9208 23.0232 39.3587 19.4609 34.9796 19.4609Z" fill="white"/>
<path fill-rule="evenodd" clip-rule="evenodd" d="M15.3955 21.6951V22.7666H18.1513C18.1513 22.7666 18.2434 31.8586 18.1389 32.8114C18.0348 33.764 17.7929 35.3145 16.0888 36.1277C14.619 36.8289 14.5889 37.4927 14.4952 38.0831C14.3733 38.8483 14.5167 38.9454 15.0745 38.8093C17.2639 38.2724 19.5945 37.3943 20.7731 35.229C21.4129 34.0539 21.6693 32.7814 21.6693 30.8491V22.7657C22.8362 22.7527 23.6786 22.0078 23.6786 20.986V19.915H17.3361C16.1759 19.915 15.3955 20.6305 15.3955 21.6951" fill="white"/>
<path fill-rule="evenodd" clip-rule="evenodd" d="M12.0433 30.9784C11.4409 30.9784 11.0246 31.232 10.5842 31.5011C9.9647 31.8794 9.26223 32.3077 7.7677 32.3077C5.24906 32.3077 3.20085 30.132 3.20085 27.457C3.20085 24.7248 5.24906 22.5028 7.7677 22.5028C9.09192 22.5028 9.8175 22.9504 10.4573 23.3458C10.9353 23.6402 11.3487 23.8957 11.9015 23.8957C13.0348 23.8957 14.215 22.6323 14.215 22.6323C14.215 22.6323 11.9828 19.4629 7.7677 19.4629C3.33792 19.4629 0 22.8998 0 27.457C0 31.9541 3.33792 35.3451 7.7677 35.3451C12.0607 35.3451 14.2716 32.1747 14.2716 32.1747C14.2716 32.1747 13.3188 30.9784 12.0433 30.9784" fill="white"/>
<path fill-rule="evenodd" clip-rule="evenodd" d="M95.5517 31.9957L97.2495 19.915H93.6874L91.5829 34.8887H100.324L100.73 31.9957H95.5517Z" fill="white"/>
<path fill-rule="evenodd" clip-rule="evenodd" d="M80.3559 19.915H69.7521L69.3456 22.8084H72.8665L71.1687 34.8887H74.7305L76.4285 22.8084H79.9494L80.3559 19.915Z" fill="white"/>
<path fill-rule="evenodd" clip-rule="evenodd" d="M105.634 31.9957L106.076 28.8487H110.414L110.821 25.9553H106.483L106.925 22.8094H111.881L112.288 19.9163L103.769 19.915L101.665 34.8887H110.406L110.812 31.9957H105.634Z" fill="white"/>
<path fill-rule="evenodd" clip-rule="evenodd" d="M92.5548 19.915H88.9424L85.7232 25.8047L84.4924 19.915H81.1969L83.3645 29.8095L82.6506 34.8884H86.2354L86.9436 29.8095L92.5548 19.915Z" fill="white"/>
</svg>
